<svg xmlns="http://www.w3.org/2000/svg" width="100.425" height="95.891" viewBox="0 0 100.425 95.891"><defs><style>.a{fill:#00c0c2;}</style></defs><g transform="translate(0 -11.559)"><circle class="a" cx="1.961" cy="1.961" r="1.961" transform="translate(85.96 62.45)"/><path class="a" d="M270.861,38.616a1.965,1.965,0,0,0,2.738-.48l5.953-8.482L289.587,48.3a1.965,1.965,0,0,0,1.711,1.033h.019a1.966,1.966,0,0,0,1.712-1l16.489-29.243.626,3.628a1.965,1.965,0,0,0,3.873-.669l-1.529-8.855a1.965,1.965,0,0,0-2.57-1.526l-8.508,2.895a1.965,1.965,0,0,0,1.266,3.721l3.444-1.172L291.357,43.292l-9.855-18.3a1.965,1.965,0,0,0-3.339-.2l-7.783,11.088a1.965,1.965,0,0,0,.48,2.738Z" transform="translate(-217.061 0)"/><path class="a" d="M100.425,135.385a1.965,1.965,0,0,0-1.965-1.965H87.922a1.965,1.965,0,0,0-1.965,1.965v39.443a1.965,1.965,0,1,0,3.931,0V137.351h6.608v56.322H89.887V171.147a1.965,1.965,0,0,0-3.931,0v22.525H81.492V155.784a1.965,1.965,0,0,0-1.965-1.965H68.988a1.965,1.965,0,0,0-1.965,1.965v37.889H62.581v-49.4a1.965,1.965,0,0,0-1.965-1.965H50.078a1.965,1.965,0,0,0-1.965,1.965v15.756a27.418,27.418,0,1,0-1.559,37.57H98.46a2.463,2.463,0,0,0,1.965-2.383ZM70.953,157.749h6.608v35.924H70.953Zm-18.91-11.506h6.608v47.43h-8.76a27.365,27.365,0,0,0,2.152-27.716V146.243ZM29.381,201.395v-3.238a1.965,1.965,0,0,0-3.931,0v3.238A23.522,23.522,0,0,1,4.014,179.958H7.252a1.965,1.965,0,0,0,0-3.931H4.014A23.522,23.522,0,0,1,25.45,154.591v3.238a1.965,1.965,0,0,0,3.931,0v-3.238a23.522,23.522,0,0,1,21.437,21.437H47.579a1.965,1.965,0,0,0,0,3.931h3.238a23.522,23.522,0,0,1-21.437,21.437Z" transform="translate(0 -97.959)"/><path class="a" d="M141.56,303.041h-7.877V293.39a1.965,1.965,0,0,0-3.931,0v11.616a1.965,1.965,0,0,0,1.965,1.965h9.842a1.965,1.965,0,0,0,0-3.931Z" transform="translate(-104.302 -224.973)"/></g></svg>