<svg xmlns="http://www.w3.org/2000/svg" width="100.001" height="100.002" viewBox="0 0 100.001 100.002"><defs><style>.a{fill:#00c0c2;}</style></defs><path class="a" d="M122.122,151.182a14.228,14.228,0,0,1-5.213,1.543,1.465,1.465,0,0,0-1.3,1.678,9.424,9.424,0,0,1,.123,1.435c0,6.1-5.794,11.061-12.916,11.061-5.188,0-9.856-2.646-11.892-6.74a2.655,2.655,0,0,0-1.025-1.1V140.548l.336-.012c2.863-.1,6.423-.229,8.407,1.685a6.918,6.918,0,0,1,1.778,4.575,4.4,4.4,0,1,0,2.936-.03,9.821,9.821,0,0,0-2.68-6.654c-2.879-2.778-7.31-2.62-10.545-2.5l-.232.008v-9.209c14.943.03,22.485.643,23.138,8.694a4.4,4.4,0,1,0,2.934-.031c-.361-5.193-3.077-8.507-8.276-10.11-4.51-1.39-10.667-1.479-17.8-1.484v-9.153c7.13-.006,13.287-.094,17.8-1.484,5.2-1.6,7.915-4.917,8.276-10.11a4.4,4.4,0,1,0-2.934-.031c-.653,8.051-8.2,8.664-23.138,8.694v-8.918l.232.008c.686.024,1.425.051,2.191.051,2.852,0,6.085-.366,8.354-2.555a9.82,9.82,0,0,0,2.68-6.654,4.4,4.4,0,1,0-2.936-.03,6.917,6.917,0,0,1-1.778,4.575c-1.983,1.914-5.545,1.786-8.406,1.685l-.336-.012V95.2a1.465,1.465,0,0,0-2.93,0v63.861a2.655,2.655,0,0,0-1.025,1.1c-2.036,4.094-6.7,6.739-11.891,6.739-7.122,0-12.916-4.962-12.916-11.061a9.425,9.425,0,0,1,.123-1.435,7.856,7.856,0,0,1,2.029-4.063,1.465,1.465,0,1,0-2.034-2.108,10.22,10.22,0,0,0-2.554,4.308,13.146,13.146,0,0,1-8.28-5.07,1.465,1.465,0,1,0-2.389,1.7,15.881,15.881,0,0,0,10.184,6.27c-.005.136-.008.27-.008.4,0,7.714,7.108,13.99,15.846,13.99,6.182,0,11.791-3.171,14.381-8.1,2.589,4.932,8.2,8.1,14.381,8.1,8.737,0,15.846-6.276,15.846-13.99,0-.133,0-.267-.008-.4a16.974,16.974,0,0,0,4.83-1.658,1.465,1.465,0,1,0-1.36-2.6Zm-20.192-1.723a1.464,1.464,0,1,1-1.469,1.464A1.468,1.468,0,0,1,101.93,149.459Zm12.618-9.7a1.464,1.464,0,1,1-1.469,1.464A1.468,1.468,0,0,1,114.548,139.763Zm0-40.654a1.464,1.464,0,1,1-1.469,1.464A1.468,1.468,0,0,1,114.548,99.109ZM101.93,89.7a1.464,1.464,0,1,1-1.469,1.464A1.468,1.468,0,0,1,101.93,89.7Z" transform="translate(-38.432 -69.827)"/><path class="a" d="M10.12,125.255a10.382,10.382,0,0,1,3.055-7.242,1.465,1.465,0,0,0-.707-2.46c-5.616-1.3-9.538-5.685-9.538-10.653a10.892,10.892,0,0,1,4.053-8.268,1.465,1.465,0,0,0,.066-2.164,7.279,7.279,0,0,1-2.32-5.224c0-4.3,3.965-7.78,9.027-7.915a6.567,6.567,0,0,1,3.827,1.426,1.465,1.465,0,0,0,1.941-2.195,9.283,9.283,0,0,0-4.94-2.1,6.916,6.916,0,0,1-.867-3.311,7.527,7.527,0,0,1,3.512-6.2,1.465,1.465,0,1,0-1.648-2.422,10.41,10.41,0,0,0-4.794,8.62,9.711,9.711,0,0,0,.653,3.486C5.883,79.691,1.8,84.021,1.8,89.245a10,10,0,0,0,2.185,6.191A13.519,13.519,0,0,0,0,104.9c0,5.644,3.849,10.666,9.6,12.838a13.2,13.2,0,0,0-2.41,7.516,1.465,1.465,0,0,0,2.93,0Z" transform="translate(0 -53.334)"/><path class="a" d="M188.875,51.566a13.518,13.518,0,0,0-3.983-9.466,10,10,0,0,0,2.185-6.191c0-5.223-4.085-9.554-9.641-10.605a9.707,9.707,0,0,0,.653-3.486c0-5.988-5.5-10.859-12.251-10.859-.135,0-.279,0-.431.009A11.912,11.912,0,0,0,161.264,3.6,14.907,14.907,0,0,0,151.657,0h-.2a14.375,14.375,0,0,0-12.587,6.89A14.374,14.374,0,0,0,126.287,0h-.2a14.908,14.908,0,0,0-9.608,3.6,11.913,11.913,0,0,0-4.143,7.365c-.151-.005-.3-.009-.431-.009a1.465,1.465,0,1,0,0,2.93,13.6,13.6,0,0,1,1.627.119,1.465,1.465,0,0,0,1.652-1.567l-.009-.1c0-.026-.005-.053-.006-.065.089-4.994,5.105-9.274,10.954-9.346,4.418-.045,8.456,2.133,10.29,5.572a2.663,2.663,0,0,0,.992,1.034v9.07a1.465,1.465,0,0,0,2.93,0V9.537a2.662,2.662,0,0,0,.992-1.034A11.376,11.376,0,0,1,151.46,2.93h.161c5.848.072,10.865,4.351,10.954,9.331a9,9,0,0,1-1.616,4.819,1.465,1.465,0,1,0,2.247,1.88,10.6,10.6,0,0,0,2.144-5.057c.176-.009.343-.014.489-.014,5.139,0,9.321,3.557,9.321,7.929a7.018,7.018,0,0,1-1.218,3.9,1.465,1.465,0,0,0,1.179,2.278c5.062.135,9.027,3.612,9.027,7.915a7.279,7.279,0,0,1-2.32,5.224,6.516,6.516,0,0,1-3.625,1.737,1.465,1.465,0,0,0,.115,2.925q.058,0,.118,0a8.885,8.885,0,0,0,4.345-1.659,10.642,10.642,0,0,1,3.166,7.434c0,4.968-3.922,9.348-9.538,10.653a1.465,1.465,0,0,0-.707,2.46,10.383,10.383,0,0,1,3.055,7.242,9.823,9.823,0,0,1-1.583,5.3,1.465,1.465,0,1,0,2.466,1.581,12.745,12.745,0,0,0,2.047-6.883,13.2,13.2,0,0,0-2.41-7.516c5.751-2.172,9.6-7.194,9.6-12.838Z" transform="translate(-88.873 0)"/><path class="a" d="M84.7,207.575a1.465,1.465,0,0,0,1.38,1.545l.084,0a1.465,1.465,0,0,0,1.461-1.383c0-.074.5-7.375,7.887-9.172a1.465,1.465,0,1,0-.692-2.847,12.719,12.719,0,0,0-8.664,6.8A14.18,14.18,0,0,0,84.7,207.575Z" transform="translate(-68.158 -157.46)"/><path class="a" d="M168,83.1a1.468,1.468,0,0,0-1.6,1.321c-.434,4.6-5.195,6.358-5.4,6.433a1.465,1.465,0,0,0,.973,2.763c.275-.1,6.734-2.432,7.347-8.921A1.465,1.465,0,0,0,168,83.1Z" transform="translate(-128.766 -66.863)"/><path class="a" d="M166.718,361.4a1.465,1.465,0,1,0,1.259-2.646c-5.637-2.682-5.155-9.059-5.131-9.335a1.465,1.465,0,0,0-2.918-.269C159.9,349.5,159.206,357.826,166.718,361.4Z" transform="translate(-128.668 -279.888)"/><path class="a" d="M173.6,251.753a1.465,1.465,0,1,0,1.258,2.646c4.742-2.256,4.309-7.5,4.288-7.72a1.465,1.465,0,1,0-2.917.273C176.232,246.985,176.514,250.366,173.6,251.753Z" transform="translate(-139.021 -197.429)"/><path class="a" d="M355.338,256.2a1.465,1.465,0,1,0,1.465-1.465A1.465,1.465,0,0,0,355.338,256.2Z" transform="translate(-285.935 -204.985)"/><path class="a" d="M407.793,257.67a1.465,1.465,0,1,0-1.465-1.465A1.465,1.465,0,0,0,407.793,257.67Z" transform="translate(-326.966 -204.985)"/><path class="a" d="M317.608,462.7a1.465,1.465,0,1,0,1.465-1.465A1.465,1.465,0,0,0,317.608,462.7Z" transform="translate(-255.574 -371.153)"/><path class="a" d="M320.537,49.7a1.465,1.465,0,1,0-1.465,1.465A1.465,1.465,0,0,0,320.537,49.7Z" transform="translate(-255.573 -38.818)"/></svg>