<svg xmlns="http://www.w3.org/2000/svg" width="114.199" height="114.516" viewBox="0 0 114.199 114.516"><defs><style>.a{fill:#00c0c2;}</style></defs><g transform="translate(-16.662 -16)"><path class="a" d="M392.478,48.656l-18.53-9.821-1.789,3.372,18.95,10.043a1.909,1.909,0,0,0,.894.223h9.543V48.656Z" transform="translate(-270.684 -17.387)"/><path class="a" d="M242.47,50.363l-11.475,1.043a17.258,17.258,0,0,1-14.323-5.616l-5.937-6.6a5.726,5.726,0,0,1-.258-7.351l10.113,6.742a1.909,1.909,0,1,0,2.117-3.176l-11.452-7.634,0,0h0a1.911,1.911,0,0,0-1.062-.318H189.2a9.4,9.4,0,0,1-9.225-7.634h33.4l9.44,5.007,1.789-3.372-9.86-5.23a1.907,1.907,0,0,0-.894-.223H177.91A1.909,1.909,0,0,0,176,17.882a13.2,13.2,0,0,0,13.2,13.386h17.164a9.544,9.544,0,0,0,1.53,10.478l5.937,6.6a21.106,21.106,0,0,0,15.63,6.95q.936,0,1.876-.085l11.389-1.036h9.456V50.355h-9.543C242.586,50.355,242.527,50.357,242.47,50.363Z" transform="translate(-121.324 0)"/><path class="a" d="M79.644,419.817H71.853v3.817h7.791a9.4,9.4,0,0,1,9.225,7.634h-33.4L27.1,416.223A1.909,1.909,0,0,0,26.2,416H16.662v3.817H25.73L54.1,434.863a1.907,1.907,0,0,0,.894.223H90.939a1.909,1.909,0,0,0,1.909-1.882,13.2,13.2,0,0,0-13.2-13.386Z" transform="translate(0 -304.57)"/><path class="a" d="M26.378,336.242,37.853,335.2a17.256,17.256,0,0,1,14.323,5.616l5.937,6.6a5.726,5.726,0,0,1,.259,7.352l-10.114-6.742a1.909,1.909,0,1,0-2.117,3.176l11.452,7.634,0,0,0,0a1.906,1.906,0,0,0,1.052.316H72.808v-3.817H62.48a9.543,9.543,0,0,0-1.53-10.478l-5.937-6.6A21.094,21.094,0,0,0,37.507,331.4l-11.388,1.035H16.662v3.817H26.2c.057,0,.115,0,.173-.008Z" transform="translate(0 -240.089)"/><path class="a" d="M184.446,152H169.177a1.909,1.909,0,0,0-1.909,1.909v13.36H158.68v3.817h10.5a1.909,1.909,0,0,0,1.909-1.909v-13.36h11.452v13.36a1.909,1.909,0,0,0,1.909,1.909h13.36v11.452h-13.36a1.909,1.909,0,0,0-1.909,1.909v13.36H171.086v-13.36a1.909,1.909,0,0,0-1.909-1.909h-13.36V171.086h3.817v-3.817h-5.726A1.909,1.909,0,0,0,152,169.177v15.269a1.909,1.909,0,0,0,1.909,1.909h13.36v13.36a1.909,1.909,0,0,0,1.909,1.909h15.269a1.909,1.909,0,0,0,1.909-1.909v-13.36h13.36a1.909,1.909,0,0,0,1.909-1.909V169.177a1.909,1.909,0,0,0-1.909-1.909h-13.36v-13.36A1.909,1.909,0,0,0,184.446,152Z" transform="translate(-103.05 -103.554)"/><path class="a" d="M104,140.263a36.088,36.088,0,0,0,2.015,11.929l3.6-1.258a32.453,32.453,0,0,1,30.644-43.116,32.843,32.843,0,0,1,3.6.2l.425-3.793A36.276,36.276,0,0,0,104,140.263Z" transform="translate(-66.501 -67.005)"/><path class="a" d="M243.146,250.375a32.839,32.839,0,0,1-3.6-.2l-.425,3.793a36.276,36.276,0,0,0,40.291-36.04A36.089,36.089,0,0,0,277.394,206l-3.6,1.258a32.453,32.453,0,0,1-30.644,43.116Z" transform="translate(-169.384 -144.671)"/><path class="a" d="M361.341,200.375a1.909,1.909,0,0,0-.707,2.031,42.061,42.061,0,0,1-20.466,47.841L342,253.6a45.876,45.876,0,0,0,23.3-47.673l5.314,3.328,2.026-3.235-9.143-5.726A1.909,1.909,0,0,0,361.341,200.375Z" transform="translate(-246.326 -140.102)"/><path class="a" d="M39.684,135.768a1.909,1.909,0,0,0,1.864-2.322A42.015,42.015,0,0,1,64.287,86.492l-1.661-3.435a45.871,45.871,0,0,0-25.5,47.248l-7.115-3.85-1.817,3.357,10.583,5.726A1.9,1.9,0,0,0,39.684,135.768Z" transform="translate(-8.78 -51.059)"/></g></svg>