<svg xmlns="http://www.w3.org/2000/svg" width="81.491" height="74.973" viewBox="0 0 81.491 74.973"><defs><style>.a{fill:#00c0c2;}</style></defs><g transform="translate(-0.001 1.332)"><path class="a" d="M70.288-1.332H11.2A11.216,11.216,0,0,0,0,9.871V46.03a11.216,11.216,0,0,0,11.164,11.2V73.641l23.58-16.408H70.288a11.216,11.216,0,0,0,11.2-11.2V9.871a11.216,11.216,0,0,0-11.2-11.2ZM76.717,46.03a6.436,6.436,0,0,1-6.429,6.429H33.247L15.939,64.5V52.458H11.2A6.436,6.436,0,0,1,4.776,46.03V9.871A6.436,6.436,0,0,1,11.2,3.443H70.288a6.436,6.436,0,0,1,6.429,6.429Zm0,0"/><path class="a" d="M171.293,131.172h37.87v4.775h-37.87Zm0,0" transform="translate(-149.482 -115.632)"/><path class="a" d="M171.293,211.172h37.87v4.775h-37.87Zm0,0" transform="translate(-149.482 -185.446)"/><path class="a" d="M171.293,291.172h37.87v4.775h-37.87Zm0,0" transform="translate(-149.482 -255.26)"/></g></svg>