<svg xmlns="http://www.w3.org/2000/svg" width="79.032" height="114.307" viewBox="0 0 79.032 114.307"><defs><style>.a{fill:#00c0c2;}</style></defs><g transform="translate(-19.75)"><path class="a" d="M90.076,14.747H76.653V1.56A1.563,1.563,0,0,0,75.09,0H43.443A1.562,1.562,0,0,0,41.88,1.563V14.747H28.457a8.717,8.717,0,0,0-8.707,8.707V105.6a8.717,8.717,0,0,0,8.707,8.711H90.076a8.717,8.717,0,0,0,8.707-8.707V23.454A8.717,8.717,0,0,0,90.076,14.747ZM43.443,26.8H86.727v75.448H31.806V26.8ZM45.006,3.126H73.527V23.678H45.006ZM95.657,105.6a5.588,5.588,0,0,1-5.581,5.581H28.457a5.588,5.588,0,0,1-5.581-5.581V23.454a5.588,5.588,0,0,1,5.581-5.581H41.88v5.8H30.243A1.562,1.562,0,0,0,28.68,25.24v78.57a1.562,1.562,0,0,0,1.563,1.566H88.289a1.562,1.562,0,0,0,1.563-1.563V25.24a1.562,1.562,0,0,0-1.563-1.563H76.653v-5.8H90.076a5.588,5.588,0,0,1,5.581,5.581Z" transform="translate(0 0)"/><path class="a" d="M58.282,15.79h3.377v3.377a1.563,1.563,0,0,0,3.126,0V15.79H68.16a1.563,1.563,0,1,0,0-3.126H64.784V9.288a1.563,1.563,0,0,0-3.126,0v3.377H58.282a1.563,1.563,0,1,0,0,3.126Z" transform="translate(-3.955 -0.826)"/><path class="a" d="M44.655,57.664a1.564,1.564,0,0,0,2.2-.179L55.559,47.34a1.563,1.563,0,1,0-2.369-2.032l-7.7,8.967L42.323,51.6a1.563,1.563,0,1,0-2.02,2.386Z" transform="translate(-2.139 -4.782)"/><path class="a" d="M63.813,49.647H83.906a1.563,1.563,0,1,0,0-3.126H63.813a1.563,1.563,0,0,0,0,3.126Z" transform="translate(-4.547 -4.977)"/><path class="a" d="M63.813,57.508H77.431a1.563,1.563,0,1,0,0-3.126H63.813a1.563,1.563,0,0,0,0,3.126Z" transform="translate(-4.547 -5.818)"/><path class="a" d="M44.655,77.725a1.563,1.563,0,0,0,2.2-.179L55.559,67.4a1.563,1.563,0,1,0-2.372-2.036l-7.7,8.97-3.168-2.679a1.563,1.563,0,0,0-2.02,2.386Z" transform="translate(-2.14 -6.934)"/><path class="a" d="M63.813,69.7H83.906a1.563,1.563,0,0,0,0-3.126H63.813a1.563,1.563,0,0,0,0,3.126Z" transform="translate(-4.547 -7.122)"/><path class="a" d="M63.813,77.561H77.431a1.563,1.563,0,1,0,0-3.126H63.813a1.563,1.563,0,0,0,0,3.126Z" transform="translate(-4.547 -7.963)"/><path class="a" d="M44.655,97.778a1.564,1.564,0,0,0,2.2-.179l8.708-10.144a1.563,1.563,0,1,0-2.372-2.036l-7.7,8.97-3.168-2.679A1.563,1.563,0,1,0,40.3,94.1Z" transform="translate(-2.14 -9.08)"/><path class="a" d="M63.813,89.754H83.906a1.563,1.563,0,1,0,0-3.126H63.813a1.563,1.563,0,0,0,0,3.126Z" transform="translate(-4.547 -9.267)"/><path class="a" d="M63.813,97.615H77.431a1.563,1.563,0,1,0,0-3.126H63.813a1.563,1.563,0,0,0,0,3.126Z" transform="translate(-4.547 -10.108)"/></g></svg>