<svg xmlns="http://www.w3.org/2000/svg" width="74.875" height="74.875" viewBox="0 0 74.875 74.875"><defs><style>.a{fill:#00c0c2;}</style></defs><g transform="translate(0 0.001)"><path class="a" d="M74.875,39.639a8.825,8.825,0,0,0-6.607-8.53V17.338A8.809,8.809,0,1,0,57.536,6.606H45.967a8.81,8.81,0,0,0-17.06,0H17.339A8.809,8.809,0,1,0,6.607,17.338V31.109a8.81,8.81,0,0,0,0,17.06v9.366A8.809,8.809,0,1,0,17.339,68.267H28.907a8.81,8.81,0,0,0,17.06,0H57.536A8.809,8.809,0,1,0,68.268,57.535V48.169A8.824,8.824,0,0,0,74.875,39.639ZM66.066,4.4a4.4,4.4,0,1,1-4.4,4.4A4.409,4.409,0,0,1,66.066,4.4Zm-28.629,0a4.4,4.4,0,1,1-4.4,4.4A4.409,4.409,0,0,1,37.437,4.4ZM4.4,8.808a4.4,4.4,0,1,1,4.4,4.4A4.409,4.409,0,0,1,4.4,8.808Zm0,30.831a4.4,4.4,0,1,1,4.4,4.4A4.409,4.409,0,0,1,4.4,39.639Zm4.4,30.831a4.4,4.4,0,1,1,4.4-4.4A4.409,4.409,0,0,1,8.809,70.47Zm28.629,0a4.4,4.4,0,1,1,4.4-4.4A4.409,4.409,0,0,1,37.437,70.47Zm20.1-6.607H45.967a8.81,8.81,0,0,0-17.06,0H17.339a8.842,8.842,0,0,0-6.328-6.328V48.169a8.81,8.81,0,0,0,0-17.06V17.338a8.842,8.842,0,0,0,6.328-6.328H28.907a8.81,8.81,0,0,0,17.06,0H57.536a8.842,8.842,0,0,0,6.328,6.328V31.108a8.81,8.81,0,0,0,0,17.06v9.366A8.842,8.842,0,0,0,57.536,63.863Zm12.935,2.2a4.4,4.4,0,1,1-4.4-4.4A4.409,4.409,0,0,1,70.47,66.065Z"/></g></svg>