<svg xmlns="http://www.w3.org/2000/svg" width="92.464" height="58.236" viewBox="0 0 92.464 58.236"><defs><style>.a{fill:#00c0c2;}</style></defs><g transform="translate(0 -94.766)"><g transform="translate(0 94.766)"><path class="a" d="M92.165,97.163a3.893,3.893,0,0,0-.843-1.263c-.023-.023-.047-.027-.066-.047a3.961,3.961,0,0,0-1.2-.793,3.886,3.886,0,0,0-1.146-.233c-.116-.008-.214-.062-.33-.062H57.5a3.885,3.885,0,1,0,0,7.77h21.74L48.486,133.464l-11.7-14.981a3.885,3.885,0,0,0-5.734-.431L1.213,146.3a3.884,3.884,0,0,0,5.342,5.641l26.732-25.311,11.783,15.085a3.888,3.888,0,0,0,5.82.35l33.8-34v21.663a3.885,3.885,0,1,0,7.77,0V98.647A3.989,3.989,0,0,0,92.165,97.163Z" transform="translate(0 -94.766)"/></g></g></svg>