<svg xmlns="http://www.w3.org/2000/svg" width="105.884" height="100.806" viewBox="0 0 105.884 100.806"><defs><style>.a{fill:#00c0c2;}</style></defs><g transform="translate(0 -11.508)"><g transform="translate(0 11.508)"><path class="a" d="M105.755,67.995A12.353,12.353,0,0,0,95.294,57.533V54.325c0-8.852-6.729-16.059-15-16.059-8.033,0-14.758,6.988-15,15.579h.1l-.1.018V88.639c0,11.118-8.312,20.146-18.529,20.146S28.235,99.745,28.235,88.639V85.627c2.559,0,5.294-1.855,5.294-7.059V74.13c11.326-2.9,19.412-12.621,19.412-23.647V46.8H49.412l-.074-22.968a8.832,8.832,0,0,0-7.26-8.638,5.266,5.266,0,1,0-.12,3.6A5.294,5.294,0,0,1,45.8,23.847L45.882,46.8H42.353v3.731A14.033,14.033,0,0,1,32.2,63.7a16.046,16.046,0,0,1-9.706,0A14.025,14.025,0,0,1,12.353,50.534V46.8H7.059V23.862a5.294,5.294,0,0,1,3.918-5.089,5.319,5.319,0,1,0-.109-3.584,8.824,8.824,0,0,0-7.338,8.673V46.8H0v3.671C0,61.512,8.091,71.241,19.412,74.13v4.438c0,5.2,2.735,7.059,5.294,7.059v3.012c0,13.059,9.895,23.675,22.059,23.675s22.059-10.629,22.059-23.675V53.947C69,47.25,74.149,41.8,80.294,41.8c6.325,0,11.471,5.619,11.471,12.529v3.2a12.353,12.353,0,1,0,13.991,10.462Zm-68.7-49.426A1.765,1.765,0,1,1,38.823,16.8,1.765,1.765,0,0,1,37.059,18.568ZM15.882,15.039A1.765,1.765,0,1,1,14.118,16.8,1.765,1.765,0,0,1,15.882,15.039ZM3.529,50.474v-.141H8.823v.2a17.534,17.534,0,0,0,12.6,16.523,19.637,19.637,0,0,0,11.855,0A17.537,17.537,0,0,0,45.882,50.534v-.2h3.529v.141c0,9.817-7.567,18.455-18,20.545a25.173,25.173,0,0,1-7.445.365,23.051,23.051,0,0,1-2.437-.369C11.1,68.929,3.529,60.291,3.529,50.474ZM24.706,82.1c-1.588,0-1.765-2.471-1.765-3.529V74.823c.141.018.286.025.429.039.176.019.353.034.529.049.835.074,1.676.124,2.525.125h.088c.847,0,1.687-.051,2.516-.125.176-.016.364-.03.545-.049.139-.016.284-.021.424-.039v3.745c0,1.059-.176,3.529-1.765,3.529Zm68.823-3.529a8.823,8.823,0,1,1,8.824-8.824A8.824,8.824,0,0,1,93.529,78.568Z" transform="translate(0 -11.508)"/></g><g transform="translate(88.235 64.451)"><path class="a" d="M405.294,251.515a5.294,5.294,0,1,0,5.294,5.294A5.294,5.294,0,0,0,405.294,251.515Zm0,7.059a1.765,1.765,0,1,1,1.765-1.765A1.765,1.765,0,0,1,405.294,258.574Z" transform="translate(-400 -251.515)"/></g></g></svg>