<svg xmlns="http://www.w3.org/2000/svg" width="93.06" height="93.052" viewBox="0 0 93.06 93.052"><defs><style>.a{fill:#00c0c2;}</style></defs><g transform="translate(0 -0.001)"><path class="a" d="M7.754,177.236H74.442a7.764,7.764,0,0,0,7.754-7.754V138.464h-3.1v31.017a4.653,4.653,0,0,1-4.652,4.652H7.754A4.652,4.652,0,0,1,3.1,169.481V101.243a4.652,4.652,0,0,1,4.653-4.653H54.281v-3.1H7.754A7.764,7.764,0,0,0,0,101.243v68.238A7.763,7.763,0,0,0,7.754,177.236Zm0,0" transform="translate(0 -84.183)"/><path class="a" d="M62.324,155.824h3.1v3.1h-3.1Zm0,0" transform="translate(-56.121 -140.314)"/><path class="a" d="M124.656,155.824h3.1v3.1h-3.1Zm0,0" transform="translate(-112.249 -140.314)"/><path class="a" d="M186.98,155.824h3.1v3.1h-3.1Zm0,0" transform="translate(-168.37 -140.314)"/><path class="a" d="M62.324,218.148h43.425v3.1H62.324Zm0,0" transform="translate(-56.121 -196.435)"/><path class="a" d="M565.753,13.616l-1.109-6.863a1.55,1.55,0,0,0-1.282-1.282L556.5,4.362,550.86.294a1.553,1.553,0,0,0-1.816,0l-5.639,4.067-6.862,1.109a1.552,1.552,0,0,0-1.283,1.282l-1.109,6.863-4.067,5.639a1.549,1.549,0,0,0,0,1.814l4.067,5.64,1.109,6.862a1.543,1.543,0,0,0,1.006,1.19L531.5,44.283a1.55,1.55,0,0,0,1.388,2.244h5.374L540.9,50.49a1.551,1.551,0,0,0,1.3.689h.1a1.55,1.55,0,0,0,1.292-.854l5.228-10.467.231.168a1.553,1.553,0,0,0,1.816,0l.231-.168,5.228,10.459a1.552,1.552,0,0,0,1.289.855l.1.007A1.553,1.553,0,0,0,559,50.49l2.641-3.963h5.375a1.55,1.55,0,0,0,1.4-2.244l-4.761-9.523a1.541,1.541,0,0,0,1-1.19l1.109-6.862,4.068-5.64a1.548,1.548,0,0,0,0-1.814Zm-23.747,32.93-1.621-2.431a1.552,1.552,0,0,0-1.289-.69H535.4l4.049-8.1,3.955.639,2.06,1.486.8.579Zm22.5-3.122h-3.694a1.552,1.552,0,0,0-1.29.69l-1.62,2.431-4.259-8.519.8-.579,2.06-1.486,3.955-.639Zm-1.478-18.234a1.531,1.531,0,0,0-.274.659l-.992,6.119-.673.11-5.442.879a1.542,1.542,0,0,0-.661.275l-1.943,1.4-3.087,2.231-3.085-2.225-1.943-1.4a1.542,1.542,0,0,0-.661-.275l-5.442-.879-.673-.111-.99-6.119a1.551,1.551,0,0,0-.275-.659l-3.629-5.034,3.626-5.029a1.523,1.523,0,0,0,.274-.659l.991-6.12,6.119-.991a1.548,1.548,0,0,0,.66-.275l5.028-3.626L554.98,7.09a1.543,1.543,0,0,0,.66.275l6.119.991.992,6.12a1.533,1.533,0,0,0,.274.659l3.626,5.029Zm0,0" transform="translate(-477.061)"/><path class="a" d="M634.137,93.488a10.856,10.856,0,1,0,10.856,10.857A10.856,10.856,0,0,0,634.137,93.488Zm0,18.611a7.754,7.754,0,1,1,7.754-7.754A7.755,7.755,0,0,1,634.137,112.1Zm0,0" transform="translate(-561.246 -84.183)"/><path class="a" d="M698.836,156.048a1.553,1.553,0,0,0-1.508-.068l-3.1,1.551,1.386,2.776.858-.429v5.245h3.1v-7.754A1.555,1.555,0,0,0,698.836,156.048Zm0,0" transform="translate(-625.131 -140.307)"/><path class="a" d="M249.316,296.059h17.238v3.1H249.316Zm0,0" transform="translate(-243.113 -266.591)"/><path class="a" d="M249.316,358.383h44.976v3.1H249.316Zm0,0" transform="translate(-243.113 -322.712)"/><path class="a" d="M249.316,420.715h32.569v3.1H249.316Zm0,0" transform="translate(-243.113 -378.841)"/><path class="a" d="M420.715,420.715h9.305v3.1h-9.305Zm0,0" transform="translate(-378.841 -378.841)"/><path class="a" d="M249.316,498.625h17.239v3.1H249.316Zm0,0" transform="translate(-243.113 -448.996)"/><path class="a" d="M249.316,560.949H303.6v3.1H249.316Zm0,0" transform="translate(-243.113 -505.117)"/><path class="a" d="M249.316,623.285h32.569v3.1H249.316Zm0,0" transform="translate(-243.113 -561.249)"/><path class="a" d="M420.715,623.285h18.61v3.1h-18.61Zm0,0" transform="translate(-378.841 -561.249)"/><path class="a" d="M249.316,701.2h17.239v3.1H249.316Zm0,0" transform="translate(-243.113 -631.405)"/><path class="a" d="M249.316,763.52H303.6v3.1H249.316Zm0,0" transform="translate(-243.113 -687.526)"/><path class="a" d="M249.316,825.852h32.569v3.1H249.316Zm0,0" transform="translate(-243.113 -743.654)"/><path class="a" d="M420.715,825.852h18.61v3.1h-18.61Zm0,0" transform="translate(-378.841 -743.654)"/></g></svg>