<svg xmlns="http://www.w3.org/2000/svg" width="71.943" height="85.266" viewBox="0 0 71.943 85.266"><defs><style>.a{fill:#00c0c2;}</style></defs><g transform="translate(-40 0)"><path class="a" d="M109.89,13.807,77.249.255a3.331,3.331,0,0,0-2.554,0L42.054,13.807A3.331,3.331,0,0,0,40,16.883V33.358A55.778,55.778,0,0,0,74.713,85.019a3.331,3.331,0,0,0,2.517,0,55.778,55.778,0,0,0,34.713-51.662V16.883A3.331,3.331,0,0,0,109.89,13.807Zm-4.608,19.551a49.128,49.128,0,0,1-29.31,44.96,49.13,49.13,0,0,1-29.31-44.96V19.107L75.972,6.937l29.31,12.169ZM72.29,44.584,86.606,30.268a3.331,3.331,0,1,1,4.71,4.71L74.645,51.65a3.331,3.331,0,0,1-4.71,0l-9.308-9.308a3.331,3.331,0,0,1,4.71-4.71Z" transform="translate(0 0)"/></g></svg>