<svg xmlns="http://www.w3.org/2000/svg" width="86.613" height="73.059" viewBox="0 0 86.613 73.059"><defs><style>.a{fill:#00c0c2;}</style></defs><g transform="translate(0.001 -40.066)"><path class="a" d="M242.741,200.36a2.706,2.706,0,0,1-2.706-2.706V178.71a2.706,2.706,0,0,1,5.413,0v18.944A2.706,2.706,0,0,1,242.741,200.36Z" transform="translate(-199.435 -112.945)"/><path class="a" d="M85.466,101,51.775,44.851a9.887,9.887,0,0,0-16.938,0L1.145,101a8.015,8.015,0,0,0,6.864,12.122H78.6A8.015,8.015,0,0,0,85.466,101Zm-6.864,6.71H8.009a2.6,2.6,0,0,1-2.223-3.926L39.478,47.635a4.469,4.469,0,0,1,7.655,0l33.691,56.152A2.6,2.6,0,0,1,78.6,107.712Z"/><circle class="a" cx="4.059" cy="4.059" r="4.059" transform="translate(39.246 90.122)"/></g></svg>