<svg xmlns="http://www.w3.org/2000/svg" width="94.912" height="82.307" viewBox="0 0 94.912 82.307"><defs><style>.a{fill:#00c0c2;}</style></defs><g transform="translate(0 -34)"><path class="a" d="M29.36,70.671A4.182,4.182,0,1,0,33.542,66.5,4.181,4.181,0,0,0,29.36,70.671Zm5.584,0a1.4,1.4,0,1,1-1.4-1.39A1.4,1.4,0,0,1,34.944,70.671Z" transform="translate(-23.917 -26.475)"/><path class="a" d="M102.987,70.671a4.182,4.182,0,1,0-4.182,4.171A4.181,4.181,0,0,0,102.987,70.671Zm-5.584,0a1.4,1.4,0,1,1,1.4,1.39A1.4,1.4,0,0,1,97.4,70.671Z" transform="translate(-77.082 -26.475)"/><path class="a" d="M166.367,70.671a4.182,4.182,0,1,0-4.182,4.171A4.181,4.181,0,0,0,166.367,70.671Zm-5.584,0a1.4,1.4,0,1,1,1.4,1.39A1.4,1.4,0,0,1,160.784,70.671Z" transform="translate(-128.713 -26.475)"/><path class="a" d="M268.667,74.842a4.171,4.171,0,1,0,0-8.342H229.581a4.171,4.171,0,1,0,0,8.342ZM228.18,70.671a1.4,1.4,0,0,1,1.4-1.39h39.086a1.39,1.39,0,1,1,0,2.781H229.581A1.4,1.4,0,0,1,228.18,70.671Z" transform="translate(-183.616 -26.475)"/><path class="a" d="M89.814,34H9.825a1.39,1.39,0,1,0,0,2.781H89.814A2.32,2.32,0,0,1,92.131,39.1V51.055H2.781V39.1A2.32,2.32,0,0,1,5.1,36.781h5.654a1.39,1.39,0,1,0,0-2.781H5.1A5.1,5.1,0,0,0,0,39.1v72.111a5.1,5.1,0,0,0,5.1,5.1H89.814a5.1,5.1,0,0,0,5.1-5.1v-8.991a1.39,1.39,0,1,0-2.781,0v8.991a2.32,2.32,0,0,1-2.317,2.317H5.1a2.32,2.32,0,0,1-2.317-2.317V53.835H92.131V105a1.39,1.39,0,1,0,2.781,0V39.1A5.1,5.1,0,0,0,89.814,34Z"/><path class="a" d="M168.622,169.623H139.353a1.39,1.39,0,1,0,0,2.781h29.268a3.248,3.248,0,0,0,3.244-3.244v-7.415a3.248,3.248,0,0,0-3.244-3.244H125.244A3.248,3.248,0,0,0,122,161.744v7.415a3.248,3.248,0,0,0,3.244,3.244h26.231a1.39,1.39,0,0,0,0-2.781H125.244a.464.464,0,0,1-.463-.463v-7.415a.464.464,0,0,1,.463-.463h43.378a.464.464,0,0,1,.463.463v7.415A.464.464,0,0,1,168.622,169.623Z" transform="translate(-99.384 -101.421)"/><path class="a" d="M215.676,251a9.176,9.176,0,1,0,9.176,9.176A9.187,9.187,0,0,0,215.676,251Zm0,15.572a6.4,6.4,0,1,1,6.4-6.4A6.4,6.4,0,0,1,215.676,266.572Z" transform="translate(-168.22 -176.774)"/><path class="a" d="M354.676,251a9.176,9.176,0,1,0,9.176,9.176A9.187,9.187,0,0,0,354.676,251Zm0,15.572a6.4,6.4,0,1,1,6.4-6.4A6.4,6.4,0,0,1,354.676,266.572Z" transform="translate(-281.453 -176.774)"/><path class="a" d="M76.676,251a9.176,9.176,0,1,0,3.5,17.659,1.39,1.39,0,0,0-1.062-2.57,6.387,6.387,0,1,1,3.643-3.936,1.39,1.39,0,0,0,2.645.859A9.182,9.182,0,0,0,76.676,251Z" transform="translate(-54.987 -176.774)"/><path class="a" d="M93.867,365H80.89a1.39,1.39,0,0,0,0,2.781H93.867a1.39,1.39,0,0,0,0-2.781Z" transform="translate(-66.524 -269.641)"/><path class="a" d="M85.72,395H70.89a1.39,1.39,0,0,0,0,2.781H85.72a1.39,1.39,0,0,0,0-2.781Z" transform="translate(-56.524 -294.08)"/><path class="a" d="M85.72,425H70.89a1.39,1.39,0,1,0,0,2.781H85.72a1.39,1.39,0,1,0,0-2.781Z" transform="translate(-56.524 -318.518)"/><path class="a" d="M232.867,365H219.89a1.39,1.39,0,0,0,0,2.781h12.976a1.39,1.39,0,0,0,0-2.781Z" transform="translate(-179.757 -269.641)"/><path class="a" d="M224.72,395H209.89a1.39,1.39,0,1,0,0,2.781h14.83a1.39,1.39,0,0,0,0-2.781Z" transform="translate(-169.757 -294.08)"/><path class="a" d="M224.72,425H209.89a1.39,1.39,0,1,0,0,2.781h14.83a1.39,1.39,0,1,0,0-2.781Z" transform="translate(-169.757 -318.518)"/><path class="a" d="M371.867,365H358.89a1.39,1.39,0,0,0,0,2.781h12.976a1.39,1.39,0,0,0,0-2.781Z" transform="translate(-292.989 -269.641)"/><path class="a" d="M363.72,395H348.89a1.39,1.39,0,1,0,0,2.781h14.83a1.39,1.39,0,0,0,0-2.781Z" transform="translate(-282.989 -294.08)"/><path class="a" d="M363.72,425H348.89a1.39,1.39,0,1,0,0,2.781h14.83a1.39,1.39,0,1,0,0-2.781Z" transform="translate(-282.989 -318.518)"/></g></svg>